<?xml version="1.0" encoding="utf-8"?>
<!-- Generator: Adobe Illustrator 17.0.0, SVG Export Plug-In . SVG Version: 6.00 Build 0)  -->
<!DOCTYPE svg PUBLIC "-//W3C//DTD SVG 1.1//EN" "http://www.w3.org/Graphics/SVG/1.1/DTD/svg11.dtd">
<svg version="1.1" id="Calque_1" xmlns="http://www.w3.org/2000/svg" xmlns:xlink="http://www.w3.org/1999/xlink" x="0px" y="0px"
	 width="700px" height="250px" viewBox="0 0 700 250" enable-background="new 0 0 700 250" xml:space="preserve">
<rect fill="#405FFF" width="700" height="250"/>
<path fill="none" stroke="#FFFFFF" stroke-width="2" stroke-miterlimit="10" d="M389.586,215l-0.136-80.039
	c0-18.656-12.451-34.722-30.451-39.073V44.311c0-5.592-4.408-10.125-10-10.125s-10,4.533-10,10.125V96.09
	c-17,4.61-29.109,20.486-29.109,38.871c0,0.044,0.164,80.039,0.164,80.039H389.586z"/>
<line fill="none" stroke="#FFFFFF" stroke-width="1.5" stroke-miterlimit="10" x1="357.361" y1="170.092" x2="342.455" y2="140.28"/>
<line fill="none" stroke="#FFFFFF" stroke-width="1.5" stroke-miterlimit="10" x1="342.455" y1="170.092" x2="357.361" y2="140.28"/>
<line fill="none" stroke="#FFFFFF" stroke-width="1.5" stroke-miterlimit="10" x1="338.798" y1="170.092" x2="323.892" y2="140.28"/>
<line fill="none" stroke="#FFFFFF" stroke-width="1.5" stroke-miterlimit="10" x1="323.892" y1="170.092" x2="338.798" y2="140.28"/>
<line fill="none" stroke="#FFFFFF" stroke-width="1.5" stroke-miterlimit="10" x1="375.923" y1="170.092" x2="361.017" y2="140.28"/>
<line fill="none" stroke="#FFFFFF" stroke-width="1.5" stroke-miterlimit="10" x1="361.017" y1="170.092" x2="375.923" y2="140.28"/>
</svg>
